<?xml version="1.0" encoding="UTF-8"?>
<svg version="1.1" viewBox="0 0 70 80" xmlns="http://www.w3.org/2000/svg" xmlns:cc="http://creativecommons.org/ns#" xmlns:dc="http://purl.org/dc/elements/1.1/" xmlns:rdf="http://www.w3.org/1999/02/22-rdf-syntax-ns#">
<g transform="translate(0 -972.36)">
<path d="m34.202 978.74c-0.77084-0.0148-1.5184 0.32642-1.9873 1.1568 0 0-3.5081 8.5092-11.924 25.449-8.4157 16.94-13.585 25.024-15.275 26.428-0.69257 0.5753 2.5212 2.4916 2.5212 2.4916s3.3281 1.5143 3.3813 0.5635c0.07925-1.4139 2.7889-5.3182 10.263-19.814 1.7979 0.1388 6.6515 0.4113 13.822 0.2669 9.0482-0.1822 14.539-0.3532 14.623-0.3559 4.892 7.7809 9.553 14.863 10.025 16.225 0.25165 0.7252 2.2613 0.4518 3.8263-0.9195 0.73542-0.6445 1.8933-2.1431 1.2458-2.6399-0.97613-0.7488-6.009-7.2967-15.305-22.483-9.2961-15.186-13.051-25.36-13.051-25.36-0.60024-0.62287-1.3944-0.99368-2.1653-1.0085zm0.20763 10.411c1.058-0.0444 2.8619 5.2621 10.055 17.381 0.74196 1.2501 1.5245 2.5402 2.3136 3.8263-2.7254 0.1759-6.9633 0.4407-12.131 0.5635-4.4508 0.1058-8.4896-0.1708-11.182-0.4152 0.20386-0.4028 0.38346-0.7108 0.59322-1.1271 6.5227-12.947 9.2937-20.184 10.352-20.229z" color="#000000" style="block-progression:tb;text-indent:0;text-transform:none"/>
</g>
</svg>
